<?xml version="1.0" standalone="no"?>
<!DOCTYPE svg PUBLIC "-//W3C//DTD SVG 20010904//EN"
 "http://www.w3.org/TR/2001/REC-SVG-20010904/DTD/svg10.dtd">
<svg version="1.0" xmlns="http://www.w3.org/2000/svg"
 width="1000.000000pt" height="1000.000000pt" viewBox="0 0 1000.000000 1000.000000"
 preserveAspectRatio="xMidYMid meet">

<g transform="translate(0.000000,1000.000000) scale(0.100000,-0.100000)"
fill="#000000" stroke="none">
<path d="M0 5000 l0 -5000 5000 0 5000 0 0 5000 0 5000 -5000 0 -5000 0 0
-5000z m5462 2851 c271 -34 565 -93 784 -156 563 -163 1004 -461 1266 -855
337 -507 390 -1215 145 -1946 -97 -287 -245 -588 -422 -853 -361 -543 -862
-976 -1355 -1172 -331 -131 -844 -222 -1164 -206 -555 29 -905 256 -1018 662
-19 69 -22 105 -22 265 0 209 15 303 81 498 83 249 343 769 546 1096 317 508
578 687 825 564 59 -30 136 -116 156 -174 34 -102 12 -203 -59 -261 -45 -37
-110 -57 -231 -71 -139 -16 -213 -64 -262 -171 -20 -44 -24 -64 -19 -112 9
-97 67 -163 173 -195 56 -17 189 -18 301 -3 219 29 352 -61 538 -366 90 -149
176 -208 325 -223 292 -30 479 139 480 434 0 280 -174 719 -473 1189 -433 682
-923 993 -1382 879 -90 -22 -248 -104 -350 -180 -314 -236 -688 -732 -1102
-1463 -58 -102 -127 -215 -154 -251 -63 -86 -158 -176 -211 -200 -173 -78
-317 92 -407 480 -77 330 -43 746 95 1159 114 343 295 650 530 900 405 431
909 670 1569 746 172 20 609 13 817 -14z m-2139 -3929 c-1 -26 -14 -47 -57
-92 -31 -32 -56 -56 -56 -52 0 15 -168 -160 -242 -252 -166 -206 -402 -595
-382 -628 4 -6 3 -8 -3 -5 -6 4 -18 -14 -28 -41 -9 -26 -28 -70 -41 -98 -36
-79 -73 -187 -68 -196 3 -4 1 -8 -4 -8 -15 0 -62 -212 -70 -318 l-7 -101 25 5
c22 4 22 3 5 -5 -11 -5 -24 -10 -28 -10 -21 -2 -112 256 -149 420 -19 89 -23
132 -23 299 0 217 13 293 80 452 95 226 285 410 500 483 71 24 199 45 275 45
l66 0 49 51 c63 64 103 90 135 87 21 -3 25 -8 23 -36z m-18 -288 c20 -36 35
-67 33 -69 -2 -2 -20 28 -41 66 -21 38 -36 69 -33 69 2 0 21 -30 41 -66z m-45
-64 c0 -5 -4 -10 -10 -10 -5 0 -10 5 -10 10 0 6 5 10 10 10 6 0 10 -4 10 -10z
m124 -110 c3 -14 -3 -7 -13 15 -11 22 -20 45 -20 50 0 15 26 -37 33 -65z m35
-120 c0 -14 -6 -4 -14 25 -18 63 -18 81 0 35 7 -19 14 -46 14 -60z m-519 -10
c0 -5 -4 -10 -10 -10 -5 0 -10 5 -10 10 0 6 5 10 10 10 6 0 10 -4 10 -10z
m538 -160 c0 -52 -3 -108 -7 -124 -3 -17 -6 37 -6 118 0 81 3 137 7 124 3 -13
6 -66 6 -118z m-678 -20 c0 -5 -5 -10 -11 -10 -5 0 -7 5 -4 10 3 6 8 10 11 10
2 0 4 -4 4 -10z m650 -187 c-11 -17 -11 -17 -6 0 3 10 7 26 7 35 1 15 2 15 6
0 2 -10 -1 -25 -7 -35z m-779 -6 c-10 -9 -11 -8 -5 6 3 10 9 15 12 12 3 -3 0
-11 -7 -18z m69 -7 c0 -5 -4 -10 -10 -10 -5 0 -10 5 -10 10 0 6 5 10 10 10 6
0 10 -4 10 -10z m667 -102 c-19 -40 -44 -84 -56 -98 -12 -14 -6 0 13 33 19 32
43 81 52 108 10 28 20 46 22 40 2 -5 -12 -43 -31 -83z m-7 62 c0 -5 -4 -10
-10 -10 -5 0 -10 5 -10 10 0 6 5 10 10 10 6 0 10 -4 10 -10z m-60 -80 c0 -5
-6 -10 -14 -10 -8 0 -18 5 -21 10 -3 6 3 10 14 10 12 0 21 -4 21 -10z m-31
-141 c-25 -35 -144 -158 -174 -180 -11 -8 14 20 56 62 41 42 88 92 103 112 34
45 46 49 15 6z m-753 -46 c-10 -10 -19 5 -10 18 6 11 8 11 12 0 2 -7 1 -15 -2
-18z m584 -53 c0 -5 -4 -10 -10 -10 -5 0 -10 5 -10 10 0 6 5 10 10 10 6 0 10
-4 10 -10z m-580 -20 c0 -5 -4 -10 -10 -10 -5 0 -10 5 -10 10 0 6 5 10 10 10
6 0 10 -4 10 -10z m20 -80 c0 -5 -4 -10 -10 -10 -5 0 -10 5 -10 10 0 6 5 10
10 10 6 0 10 -4 10 -10z m503 -23 c-35 -29 -139 -99 -173 -117 -39 -20 -22 -7
77 59 51 34 95 66 98 71 4 6 11 10 16 10 6 0 -2 -10 -18 -23z m-283 7 c0 -3
-7 -12 -15 -21 -20 -19 -32 -10 -14 11 14 15 29 21 29 10z m-280 -104 c0 -5
-4 -10 -10 -10 -5 0 -10 5 -10 10 0 6 5 10 10 10 6 0 10 -4 10 -10z m345 -46
c-24 -18 -151 -84 -162 -84 -8 0 167 98 177 99 3 0 -4 -7 -15 -15z m-385 -94
c0 -5 -4 -10 -10 -10 -5 0 -10 5 -10 10 0 6 5 10 10 10 6 0 10 -4 10 -10z
m205 0 c-3 -5 -12 -10 -18 -10 -7 0 -6 4 3 10 19 12 23 12 15 0z m-201 -29
c-10 -10 -21 -16 -24 -14 -3 3 4 11 14 19 28 20 33 17 10 -5z m145 4 c-9 -8
-151 -65 -163 -65 -6 1 25 16 69 35 76 32 104 41 94 30z"/>
</g>
</svg>
